<svg width="12" height="11" viewBox="0 0 12 11" fill="none" xmlns="http://www.w3.org/2000/svg">
<path d="M7.38281 0C7.799 0.000148898 8.17904 0.235225 8.36523 0.607422L8.95898 1.79297C9.08313 2.04125 9.33673 2.19824 9.61426 2.19824H10.627C11.234 2.1983 11.7266 2.69077 11.7266 3.29785V9.16016C11.7266 9.76729 11.234 10.2597 10.627 10.2598H1.09961C0.492543 10.2597 0 9.76729 0 9.16016V3.29785C0 2.69077 0.492543 2.1983 1.09961 2.19824H2.1123C2.38989 2.19824 2.64344 2.04125 2.76758 1.79297L3.36133 0.607422C3.54752 0.235212 3.92758 0.000135006 4.34375 0H7.38281ZM5.86328 2.93164C4.2444 2.93164 2.9318 4.24346 2.93164 5.8623C2.93164 7.48129 4.2443 8.79395 5.86328 8.79395C7.48223 8.79395 8.79492 7.48129 8.79492 5.8623C8.79476 4.24346 7.48213 2.93164 5.86328 2.93164ZM5.86328 4.17676C6.7941 4.17676 7.54867 4.93152 7.54883 5.8623C7.54883 6.79321 6.7942 7.54785 5.86328 7.54785C4.93236 7.54785 4.17773 6.79321 4.17773 5.8623C4.17789 4.93152 4.93246 4.17676 5.86328 4.17676Z" fill="#1A1B22"/>
</svg>
